<svg width="1182" height="375" viewBox="0 0 1182 375" fill="none" xmlns="http://www.w3.org/2000/svg">
<g id="Bottom">
<g id="Bottom_2">
<g id="Group 1000001757">
<rect id="Rectangle 345" width="1174.17" height="347.602" rx="32" transform="matrix(0.999726 -0.0234157 0.0234638 0.999725 0 27.4939)" fill="#0C96E2"/>
<g id="CTA">
<g id="CTA_2">
<g clip-path="url(#clip0_69_1106)">
<rect x="10.2161" y="13.6566" width="1169" height="348" rx="32" fill="#583FBC"/>
<g id="LInes" opacity="0.25">
<path id="Vector 1" d="M9.88281 211.84C23.7382 211.84 129.039 330.996 268.385 330.996C461.964 330.996 566.191 -103.079 838.83 18.2608C1054.97 114.457 1149.98 124.749 1189.57 57.8476" stroke="#BECED8"/>
<path id="Vector 3" d="M9.88281 108.914C22.1547 118.019 129.039 330.996 268.385 330.996C461.964 330.996 597.86 -55.5745 870.499 65.7649C1086.64 161.961 1120.69 146.522 1189.57 97.4344" stroke="#BECED8"/>
<path id="Vector 2" d="M9.88281 275.179C23.7382 275.179 129.039 334.163 268.385 334.163C461.964 334.163 568.452 -173.925 822.995 -18.1592C1008.66 95.4548 1118.31 140.584 1189.57 89.5169" stroke="#BECED8"/>
</g>
</g>
</g>
</g>
</g>
</g>
</g>
<defs>
<clipPath id="clip0_69_1106">
<rect x="10.2161" y="13.6566" width="1169" height="348" rx="32" fill="white"/>
</clipPath>
</defs>
</svg>
